<mxfile host="app.diagrams.net" modified="2023-09-19T10:52:02.690Z" agent="Mozilla/5.0 (Windows NT 10.0; Win64; x64) AppleWebKit/537.36 (KHTML, like Gecko) Chrome/117.0.0.0 Safari/537.36 Edg/117.0.2045.31" etag="kafs9cWohhPgC2FCM0rK" version="21.7.5" type="github">
  <diagram name="Page-1" id="nTAkSpbYj7bX4QL-7YCP">
    <mxGraphModel dx="872" dy="491" grid="1" gridSize="10" guides="1" tooltips="1" connect="1" arrows="1" fold="1" page="1" pageScale="1" pageWidth="850" pageHeight="1100" math="0" shadow="0">
      <root>
        <mxCell id="0" />
        <mxCell id="1" parent="0" />
        <mxCell id="_yivKYCb2x6nQ_JJ3shi-7" style="edgeStyle=orthogonalEdgeStyle;rounded=0;orthogonalLoop=1;jettySize=auto;html=1;entryX=0.5;entryY=0;entryDx=0;entryDy=0;flowAnimation=1;" edge="1" parent="1" source="_yivKYCb2x6nQ_JJ3shi-1" target="_yivKYCb2x6nQ_JJ3shi-3">
          <mxGeometry relative="1" as="geometry" />
        </mxCell>
        <mxCell id="_yivKYCb2x6nQ_JJ3shi-12" style="edgeStyle=orthogonalEdgeStyle;rounded=0;orthogonalLoop=1;jettySize=auto;html=1;entryX=0.5;entryY=0;entryDx=0;entryDy=0;flowAnimation=1;" edge="1" parent="1" source="_yivKYCb2x6nQ_JJ3shi-1" target="_yivKYCb2x6nQ_JJ3shi-8">
          <mxGeometry relative="1" as="geometry" />
        </mxCell>
        <mxCell id="_yivKYCb2x6nQ_JJ3shi-1" value="RAJESH PILLAI&lt;br&gt;(TODOS)" style="rounded=1;whiteSpace=wrap;html=1;" vertex="1" parent="1">
          <mxGeometry x="350" y="40" width="120" height="60" as="geometry" />
        </mxCell>
        <mxCell id="_yivKYCb2x6nQ_JJ3shi-3" value="FRONTEND" style="swimlane;whiteSpace=wrap;html=1;" vertex="1" parent="1">
          <mxGeometry x="110" y="130" width="150" height="190" as="geometry" />
        </mxCell>
        <mxCell id="_yivKYCb2x6nQ_JJ3shi-4" value="React" style="text;html=1;strokeColor=none;fillColor=none;align=left;verticalAlign=middle;whiteSpace=wrap;rounded=0;" vertex="1" parent="_yivKYCb2x6nQ_JJ3shi-3">
          <mxGeometry x="30" y="40" width="60" height="30" as="geometry" />
        </mxCell>
        <mxCell id="_yivKYCb2x6nQ_JJ3shi-5" value="Vue" style="text;html=1;strokeColor=none;fillColor=none;align=left;verticalAlign=middle;whiteSpace=wrap;rounded=0;" vertex="1" parent="_yivKYCb2x6nQ_JJ3shi-3">
          <mxGeometry x="30" y="70" width="60" height="30" as="geometry" />
        </mxCell>
        <mxCell id="_yivKYCb2x6nQ_JJ3shi-6" value="SolidJS" style="text;html=1;strokeColor=none;fillColor=none;align=left;verticalAlign=middle;whiteSpace=wrap;rounded=0;" vertex="1" parent="_yivKYCb2x6nQ_JJ3shi-3">
          <mxGeometry x="30" y="100" width="60" height="30" as="geometry" />
        </mxCell>
        <mxCell id="_yivKYCb2x6nQ_JJ3shi-8" value="BACKEND" style="swimlane;whiteSpace=wrap;html=1;" vertex="1" parent="1">
          <mxGeometry x="580" y="130" width="150" height="190" as="geometry" />
        </mxCell>
        <mxCell id="_yivKYCb2x6nQ_JJ3shi-9" value="Node.js" style="text;html=1;strokeColor=none;fillColor=none;align=left;verticalAlign=middle;whiteSpace=wrap;rounded=0;" vertex="1" parent="_yivKYCb2x6nQ_JJ3shi-8">
          <mxGeometry x="30" y="40" width="60" height="30" as="geometry" />
        </mxCell>
        <mxCell id="_yivKYCb2x6nQ_JJ3shi-10" value="Elixir" style="text;html=1;strokeColor=none;fillColor=none;align=left;verticalAlign=middle;whiteSpace=wrap;rounded=0;" vertex="1" parent="_yivKYCb2x6nQ_JJ3shi-8">
          <mxGeometry x="30" y="70" width="60" height="30" as="geometry" />
        </mxCell>
        <mxCell id="_yivKYCb2x6nQ_JJ3shi-11" value="Ruby" style="text;html=1;strokeColor=none;fillColor=none;align=left;verticalAlign=middle;whiteSpace=wrap;rounded=0;" vertex="1" parent="_yivKYCb2x6nQ_JJ3shi-8">
          <mxGeometry x="30" y="100" width="60" height="30" as="geometry" />
        </mxCell>
      </root>
    </mxGraphModel>
  </diagram>
</mxfile>
